<svg xmlns="http://www.w3.org/2000/svg" xmlns:xlink="http://www.w3.org/1999/xlink" width="500" zoomAndPan="magnify" viewBox="0 0 375 374.999991" height="500" preserveAspectRatio="xMidYMid meet" version="1.0"><defs><clipPath id="cd79da2863"><path d="M 65.914062 74.882812 L 308.914062 74.882812 L 308.914062 290 L 65.914062 290 Z M 65.914062 74.882812 " clip-rule="nonzero"/></clipPath><clipPath id="4c05196cc4"><path d="M 88 279 L 296 279 L 296 299.882812 L 88 299.882812 Z M 88 279 " clip-rule="nonzero"/></clipPath></defs><rect x="-37.5" width="450" fill="#ffffff" y="-37.499999" height="449.999989" fill-opacity="1"/><rect x="-37.5" width="450" fill="#e0e7ff" y="-37.499999" height="449.999989" fill-opacity="1"/><g clip-path="url(#cd79da2863)"><path fill="#6366f1" d="M 109.746094 289.71875 C 109.796875 289.761719 109.851562 289.804688 109.902344 289.847656 C 111.132812 289.453125 112.394531 289.066406 113.683594 288.6875 C 113.84375 288.640625 114.003906 288.59375 114.164062 288.546875 C 114.851562 288.351562 115.542969 288.15625 116.246094 287.964844 C 116.730469 287.828125 117.21875 287.699219 117.714844 287.566406 C 119.433594 287.113281 121.207031 286.671875 123.019531 286.246094 C 123.203125 286.203125 123.386719 286.164062 123.570312 286.121094 C 136.988281 283.03125 152.886719 280.824219 170.238281 279.8125 C 176.953125 279.417969 183.886719 279.199219 190.980469 279.179688 C 191.355469 279.179688 191.726562 279.179688 192.101562 279.179688 C 196.53125 279.179688 200.902344 279.253906 205.195312 279.402344 C 208.101562 279.503906 210.972656 279.636719 213.804688 279.800781 C 234.210938 280.988281 252.609375 283.816406 267.339844 287.796875 C 267.394531 287.75 267.445312 287.703125 267.5 287.660156 C 292.882812 265.398438 308.90625 232.734375 308.90625 196.328125 C 308.90625 129.253906 254.515625 74.878906 187.414062 74.878906 C 120.316406 74.878906 65.921875 129.253906 65.921875 196.328125 C 65.921875 233.875 82.964844 267.441406 109.746094 289.71875 Z M 109.746094 289.71875 " fill-opacity="1" fill-rule="evenodd"/></g><path fill="#ffffff" d="M 198.863281 116.242188 C 198.863281 116.242188 201.921875 112.402344 200.75 111.6875 C 199.644531 110.90625 200.359375 103.234375 202.3125 104.015625 C 202.3125 104.015625 209.925781 87.625 222.546875 99.070312 C 222.546875 99.070312 224.433594 104.082031 223.328125 108.175781 C 224.953125 108.761719 226.515625 110.453125 225.929688 110.453125 C 225.347656 110.453125 223.585938 110.195312 222.613281 110.0625 C 221.050781 113.25 221.3125 111.105469 219.878906 114.679688 C 218.320312 118.519531 214.480469 121.964844 212.984375 122.355469 C 211.421875 122.746094 213.765625 124.238281 215.261719 124.632812 C 216.824219 125.019531 215.261719 127.6875 215.261719 127.6875 C 215.261719 127.6875 215.652344 128.730469 215.78125 130.550781 L 260.351562 165.476562 C 260.351562 165.476562 266.398438 168.144531 264.515625 173.476562 C 262.628906 178.808594 258.007812 179.589844 258.007812 179.589844 C 258.007812 179.589844 256.121094 174.257812 259.179688 166.972656 C 259.179688 166.972656 223.980469 138.09375 215.714844 132.175781 C 215.519531 135.363281 214.21875 139.980469 209.535156 145.246094 C 200.753906 155.132812 199.257812 162.417969 199.257812 162.417969 C 199.257812 162.417969 200.558594 158.773438 201.730469 158.773438 C 199.0625 165.667969 201.925781 165.800781 198.085938 171.199219 L 197.695312 174.253906 C 197.695312 174.253906 201.535156 183.035156 200.753906 185.3125 C 199.972656 187.589844 194.960938 190.1875 193.269531 190.773438 C 196.71875 190.578125 199.972656 187.589844 200.753906 188.367188 C 201.53125 189.148438 201.535156 191.8125 199.972656 192.921875 C 199.972656 192.921875 201.921875 195.261719 200.753906 196.757812 C 199.644531 198.320312 200.167969 198.125 199.972656 200.597656 C 199.777344 203.066406 199.453125 203.066406 199.453125 203.066406 L 198.867188 214.125 C 198.867188 214.125 200.167969 215.492188 200.167969 216.792969 C 200.167969 218.15625 201.925781 218.675781 203.03125 223.101562 C 204.203125 227.457031 207.648438 234.160156 208.757812 239.492188 L 204.980469 235.71875 C 204.980469 235.71875 208.363281 240.664062 209.144531 241.441406 C 209.925781 242.160156 209.535156 244.824219 209.535156 244.824219 C 209.535156 244.824219 203.027344 241.441406 201.53125 240.269531 C 201.53125 240.269531 203.417969 243.71875 211.097656 246.382812 C 211.097656 246.382812 212.984375 246.773438 212.59375 249.050781 C 212.59375 249.050781 217.148438 249.832031 217.148438 254.382812 C 217.148438 259.003906 216.042969 260.890625 216.429688 263.164062 C 216.820312 265.441406 218.316406 270.773438 216.429688 274.609375 C 214.480469 278.449219 212.984375 281.117188 212.984375 281.117188 L 205.695312 281.117188 C 205.695312 281.117188 203.417969 273.507812 204.589844 270.773438 C 205.695312 268.109375 204.980469 268.109375 208.363281 264.335938 C 208.363281 264.335938 207.257812 264.335938 206.085938 265.050781 C 206.085938 265.050781 207.453125 261.867188 208.234375 261.085938 C 207.519531 261.019531 206.476562 261.277344 205.890625 261.867188 C 205.4375 263.6875 204.71875 258.027344 204.980469 256.660156 C 204.394531 257.832031 203.613281 262.578125 204.785156 267.589844 C 204.785156 267.589844 190.472656 251.71875 188.910156 246.386719 C 187.414062 241.050781 182.796875 220.433594 181.296875 218.550781 C 179.738281 216.597656 179.414062 213.148438 179.414062 213.148438 C 179.414062 213.148438 181.105469 216.792969 183.382812 218.355469 C 183.382812 218.355469 179.023438 213.148438 179.414062 208.988281 C 179.738281 204.761719 179.414062 197.929688 179.414062 197.929688 C 179.414062 197.929688 178.242188 200.207031 178.242188 206.710938 C 178.242188 213.148438 179.738281 222.710938 170.628906 227.328125 C 170.628906 227.328125 176.679688 224.597656 178.242188 221.214844 L 178.628906 230.320312 C 178.628906 230.320312 170.953125 234.9375 166.789062 236.433594 C 166.789062 236.433594 174.011719 233.960938 175.769531 233.050781 C 175.769531 233.050781 172.90625 236.628906 169.457031 238.386719 C 169.457031 238.386719 176.546875 234.941406 178.433594 232.664062 C 178.433594 232.664062 178.628906 244.5 179.734375 249.441406 C 180.90625 254.386719 182.402344 260.890625 181.296875 261.996094 C 180.125 263.167969 175.570312 265.832031 175.570312 265.832031 C 175.570312 265.832031 179.734375 264.726562 181.296875 263.554688 C 181.296875 263.554688 183.574219 265.050781 183.574219 267.003906 C 183.574219 268.886719 182.402344 271.945312 182.402344 271.945312 C 182.402344 271.945312 185.851562 271.554688 187.414062 272.726562 C 188.910156 273.832031 193.140625 273.117188 193.921875 273.507812 C 194.636719 273.832031 195.417969 274.613281 194.636719 276.175781 C 193.921875 277.671875 190.082031 280.726562 180.128906 281.121094 C 170.238281 281.507812 170.238281 281.507812 170.238281 281.507812 L 170.238281 274.613281 C 170.238281 274.613281 173.296875 271.949219 176.679688 272.335938 C 176.679688 272.335938 173.300781 271.167969 170.238281 273.507812 C 170.238281 273.507812 168.289062 270.777344 166.792969 262.386719 C 165.230469 253.996094 162.5625 245.21875 162.171875 237.214844 C 161.847656 229.214844 162.171875 226.550781 160.285156 224.988281 C 158.402344 223.492188 163.605469 220.371094 165.492188 216.921875 C 164.90625 217.378906 163.734375 219.851562 159.507812 221.734375 C 159.507812 221.734375 158.789062 212.433594 158.789062 204.761719 C 158.789062 197.152344 156.449219 191.816406 156.449219 191.816406 C 156.449219 191.816406 154.167969 184.144531 157.617188 177.703125 C 161.066406 171.199219 159.898438 165.867188 161.066406 163.914062 C 161.390625 163.332031 162.757812 160.402344 164.382812 156.695312 C 169.65625 162.160156 176.355469 163.199219 176.355469 163.199219 C 170.304688 160.859375 166.660156 157.414062 164.90625 155.460938 L 165.621094 153.835938 C 170.566406 158.0625 176.03125 158.910156 176.03125 158.910156 C 171.414062 157.089844 168.160156 154.617188 166.140625 152.730469 C 169.460938 144.925781 173.300781 136.082031 173.300781 136.082031 C 173.300781 136.082031 157.230469 135.300781 155.339844 134.585938 C 153.453125 133.804688 152.285156 133.023438 152.671875 129.96875 C 153.0625 126.910156 155.339844 104.796875 164.515625 96.015625 C 164.515625 96.015625 166.792969 92.179688 169.460938 92.960938 C 172.128906 93.742188 179.738281 101.351562 182.082031 101.738281 L 180.519531 103.234375 L 197.695312 116.828125 C 197.695312 116.828125 198.476562 117.019531 198.863281 116.242188 Z M 262.628906 168.726562 C 262.628906 168.726562 264.777344 172.566406 261.714844 175.621094 Z M 203.550781 105.378906 C 203.550781 105.378906 211.75 112.792969 220.335938 111.6875 C 215.523438 113.511719 208.496094 111.496094 204.398438 108.4375 C 203.617188 107.851562 202.964844 107.851562 203.550781 105.378906 Z M 207.84375 104.792969 C 207.84375 104.792969 213.765625 108.828125 214.15625 108.828125 C 214.542969 108.828125 215.519531 107.460938 214.738281 106.289062 C 213.957031 105.183594 210.902344 102.910156 209.992188 103.105469 C 209.015625 103.230469 207.519531 102.90625 207.84375 104.792969 Z M 187.414062 171.394531 L 187.414062 174.0625 C 187.414062 174.0625 195.9375 173.867188 196.785156 174.644531 L 196.785156 171.980469 C 196.785156 171.980469 193.140625 171.980469 187.414062 171.394531 Z M 180.386719 172.175781 L 180.386719 174.453125 L 185.722656 174.257812 L 185.527344 172.371094 C 185.527344 172.371094 181.882812 172.695312 180.386719 172.175781 Z M 161.257812 170.417969 C 161.257812 170.417969 160.542969 171.199219 160.933594 173.863281 C 160.933594 173.863281 161.128906 172.886719 162.429688 173.082031 C 163.796875 173.277344 171.019531 173.667969 172.582031 173.667969 C 174.078125 173.667969 177.722656 173.667969 178.304688 174.449219 L 178.5 171.78125 C 178.5 171.78125 172.191406 171.78125 171.019531 171 C 169.847656 170.222656 161.257812 170.417969 161.257812 170.417969 Z M 170.628906 105.183594 C 170.628906 105.183594 166.789062 104.011719 165.8125 104.796875 C 164.902344 105.578125 163.339844 113.964844 163.734375 118.910156 C 164.125 123.851562 164.515625 125.804688 164.515625 125.804688 C 164.515625 125.804688 165.816406 125.804688 166.398438 125.019531 C 166.984375 124.238281 170.757812 123.65625 170.757812 123.65625 C 170.757812 123.65625 174.207031 123.136719 176.355469 124.632812 C 176.355469 124.632812 176.355469 123.460938 175.183594 122.746094 C 175.183594 122.746094 177.070312 121.964844 179.21875 123.460938 L 178.632812 121.773438 C 178.632812 121.773438 181.496094 120.992188 182.601562 120.277344 C 183.773438 119.496094 179.023438 116.242188 177.265625 115.074219 C 175.574219 113.964844 171.734375 112.792969 170.628906 105.183594 Z M 170.628906 105.183594 " fill-opacity="1" fill-rule="evenodd"/><path fill="#ffffff" d="M 116.589844 289.398438 L 110.542969 260.992188 L 115.816406 278.996094 L 112.472656 235.910156 L 115.6875 264.59375 L 116.589844 247.742188 L 117.617188 268.578125 L 120.320312 257.902344 L 118.777344 275.976562 L 121.09375 271.988281 C 121.09375 271.988281 116.847656 284.046875 117.875 289.398438 Z M 116.589844 289.398438 " fill-opacity="1" fill-rule="evenodd"/><path fill="#ffffff" d="M 123.46875 286.40625 L 125.808594 275.429688 L 123.769531 282.386719 L 125.0625 265.734375 L 123.820312 276.820312 L 123.46875 270.308594 L 123.074219 278.359375 L 122.03125 274.234375 L 122.628906 281.21875 L 121.730469 279.679688 C 121.730469 279.679688 123.371094 284.335938 122.976562 286.40625 Z M 123.46875 286.40625 " fill-opacity="1" fill-rule="evenodd"/><path fill="#ffffff" d="M 113.875 289.398438 L 112.535156 283.109375 L 113.703125 287.09375 L 112.964844 277.550781 L 113.675781 283.90625 L 113.875 280.175781 L 114.105469 284.789062 L 114.703125 282.425781 L 114.363281 286.429688 L 114.875 285.546875 C 114.875 285.546875 113.933594 288.214844 114.160156 289.402344 L 113.875 289.402344 Z M 113.875 289.398438 " fill-opacity="1" fill-rule="evenodd"/><path fill="#ffffff" d="M 240.21875 286.40625 L 246.265625 257.996094 L 240.988281 276.003906 L 244.335938 232.914062 L 241.117188 261.597656 L 240.21875 244.746094 L 239.1875 265.585938 L 236.484375 254.910156 L 238.03125 272.980469 L 235.714844 268.996094 C 235.714844 268.996094 239.960938 281.050781 238.929688 286.40625 Z M 240.21875 286.40625 " fill-opacity="1" fill-rule="evenodd"/><path fill="#ffffff" d="M 233.332031 283.410156 L 230.996094 272.433594 L 233.035156 279.390625 L 231.742188 262.742188 L 232.984375 273.824219 L 233.332031 267.316406 L 233.730469 275.367188 L 234.773438 271.242188 L 234.175781 278.222656 L 235.070312 276.683594 C 235.070312 276.683594 233.429688 281.339844 233.828125 283.410156 Z M 233.332031 283.410156 " fill-opacity="1" fill-rule="evenodd"/><path fill="#ffffff" d="M 242.929688 286.40625 L 244.269531 280.113281 L 243.101562 284.101562 L 243.839844 274.558594 L 243.128906 280.910156 L 242.929688 277.179688 L 242.699219 281.796875 L 242.101562 279.433594 L 242.441406 283.433594 L 241.929688 282.550781 C 241.929688 282.550781 242.871094 285.222656 242.644531 286.40625 Z M 242.929688 286.40625 " fill-opacity="1" fill-rule="evenodd"/><g clip-path="url(#4c05196cc4)"><path fill="#ffffff" d="M 295.71875 299.882812 C 286.339844 296.898438 274.917969 294.332031 261.972656 292.308594 C 241.734375 289.144531 217.777344 287.3125 192.101562 287.3125 C 163.097656 287.3125 136.292969 289.648438 114.554688 293.605469 C 104.738281 295.390625 95.960938 297.503906 88.480469 299.882812 C 93.453125 296.140625 100.707031 292.730469 109.746094 289.800781 C 111.023438 289.390625 112.335938 288.984375 113.683594 288.589844 C 113.84375 288.542969 114.003906 288.496094 114.164062 288.449219 C 114.851562 288.253906 115.542969 288.058594 116.246094 287.867188 C 116.730469 287.730469 117.21875 287.601562 117.714844 287.46875 C 119.433594 287.015625 121.207031 286.574219 123.019531 286.148438 C 123.203125 286.105469 123.386719 286.066406 123.570312 286.023438 C 136.988281 282.933594 152.886719 280.726562 170.238281 279.714844 C 176.953125 279.320312 183.886719 279.101562 190.980469 279.082031 C 191.355469 279.082031 191.726562 279.082031 192.101562 279.082031 C 196.53125 279.082031 200.902344 279.15625 205.195312 279.304688 C 208.101562 279.40625 210.972656 279.539062 213.804688 279.703125 C 234.285156 280.894531 252.742188 283.738281 267.5 287.742188 C 279.796875 291.078125 289.53125 295.222656 295.71875 299.882812 Z M 295.71875 299.882812 " fill-opacity="1" fill-rule="evenodd"/></g></svg>