<svg xmlns="http://www.w3.org/2000/svg" xmlns:xlink="http://www.w3.org/1999/xlink" width="500" zoomAndPan="magnify" viewBox="0 0 375 374.999991" height="500" preserveAspectRatio="xMidYMid meet" version="1.0"><defs><clipPath id="f6551dc5cd"><path d="M 24.484375 58.765625 L 315 58.765625 L 315 257 L 24.484375 257 Z M 24.484375 58.765625 " clip-rule="nonzero"/></clipPath><clipPath id="6428dcf2f6"><path d="M 229 276 L 269 276 L 269 316.015625 L 229 316.015625 Z M 229 276 " clip-rule="nonzero"/></clipPath><clipPath id="b4be8b3de7"><path d="M 117 276 L 157 276 L 157 316.015625 L 117 316.015625 Z M 117 276 " clip-rule="nonzero"/></clipPath></defs><rect x="-37.5" width="450" fill="#ffffff" y="-37.499999" height="449.999989" fill-opacity="1"/><rect x="-37.5" width="450" fill="#e0e7ff" y="-37.499999" height="449.999989" fill-opacity="1"/><g clip-path="url(#f6551dc5cd)"><path fill="#6366f1" d="M 290.824219 103.152344 L 94.320312 103.152344 C 87.523438 71.222656 68.9375 69.183594 67.351562 68.957031 L 53.070312 68.957031 C 50.804688 63.523438 45.59375 58.765625 39.246094 58.765625 C 31.085938 58.765625 24.511719 65.332031 24.511719 73.484375 C 24.511719 81.636719 31.085938 88.433594 39.246094 88.433594 C 45.59375 88.433594 50.804688 83.449219 53.070312 78.015625 L 66.445312 78.015625 C 66.898438 78.015625 79.363281 81.863281 84.121094 107.90625 C 90.242188 142.554688 106.105469 229.511719 106.105469 229.511719 C 106.105469 239.25 112 256.914062 133.757812 256.914062 L 217.617188 256.914062 L 214.21875 248.082031 L 133.53125 248.082031 C 124.238281 248.082031 120.160156 241.289062 118.34375 236.53125 C 133.078125 235.625 173.421875 232.910156 209.003906 230.417969 L 209.230469 230.417969 L 192.460938 176.070312 C 190.871094 170.859375 192.460938 165.199219 196.539062 161.574219 C 200.617188 157.953125 206.964844 157.273438 211.722656 159.765625 L 291.957031 200.300781 C 294.902344 201.65625 296.945312 204.148438 298.304688 207.09375 L 303.515625 205.734375 C 305.328125 201.882812 305.78125 199.167969 305.78125 198.714844 L 314.167969 130.324219 C 316.207031 115.152344 305.78125 103.152344 290.824219 103.152344 Z M 167.300781 153.421875 C 167.753906 152.292969 169.113281 151.613281 170.246094 152.066406 L 185.886719 157.726562 C 187.019531 158.179688 187.699219 159.539062 187.246094 160.671875 C 186.792969 161.574219 185.886719 162.253906 184.980469 162.253906 C 184.753906 162.253906 184.527344 162.253906 184.074219 162.027344 L 168.433594 156.367188 C 167.527344 155.914062 166.847656 154.554688 167.300781 153.421875 Z M 183.847656 179.917969 L 168.886719 186.9375 C 168.660156 187.164062 168.207031 187.164062 167.980469 187.164062 C 167.074219 187.164062 166.167969 186.710938 165.941406 185.804688 C 165.488281 184.675781 165.941406 183.316406 167.074219 182.636719 L 182.035156 175.617188 C 183.167969 175.164062 184.527344 175.617188 185.207031 176.75 C 185.660156 177.878906 185.207031 179.464844 183.847656 179.917969 Z M 194.726562 189.65625 C 195.859375 190.109375 196.539062 191.46875 196.085938 192.601562 L 190.417969 208.453125 C 189.964844 209.355469 189.285156 210.035156 188.152344 210.035156 C 187.925781 210.035156 187.699219 210.035156 187.472656 209.808594 C 186.339844 209.355469 185.660156 208 186.113281 206.867188 L 191.777344 191.015625 C 192.234375 189.882812 193.59375 189.203125 194.726562 189.65625 Z M 200.164062 150.933594 C 199.9375 151.160156 199.484375 151.160156 199.257812 151.160156 C 198.351562 151.160156 197.445312 150.707031 197.21875 149.800781 L 189.964844 134.628906 C 189.511719 133.496094 189.964844 132.136719 191.097656 131.457031 C 192.234375 131.003906 193.59375 131.457031 194.273438 132.589844 L 201.296875 147.761719 C 201.75 148.894531 201.296875 150.253906 200.164062 150.933594 Z M 224.644531 135.988281 L 218.976562 151.839844 C 218.523438 152.746094 217.84375 153.421875 216.710938 153.421875 C 216.484375 153.421875 216.257812 153.421875 215.804688 153.195312 C 214.671875 152.746094 213.992188 151.386719 214.445312 150.253906 L 220.109375 134.402344 C 220.5625 133.269531 221.921875 132.589844 223.058594 133.042969 C 224.644531 133.269531 225.097656 134.628906 224.644531 135.988281 Z M 246.855469 159.085938 L 231.894531 166.105469 C 231.441406 166.332031 231.214844 166.332031 230.761719 166.332031 C 229.855469 166.332031 228.949219 165.878906 228.722656 164.972656 C 228.269531 163.839844 228.722656 162.480469 229.855469 161.800781 L 244.816406 154.78125 C 245.949219 154.328125 247.308594 154.78125 247.988281 155.914062 C 248.667969 157.046875 247.988281 158.40625 246.855469 159.085938 Z M 246.855469 159.085938 " fill-opacity="1" fill-rule="nonzero"/></g><path fill="#6366f1" d="M 268.613281 224.078125 L 287.652344 216.605469 C 289.464844 215.925781 290.597656 214.339844 290.597656 212.527344 C 290.597656 210.714844 289.691406 208.90625 288.105469 208 L 207.871094 167.464844 C 206.285156 166.558594 204.246094 166.785156 202.660156 168.144531 C 201.296875 169.273438 200.617188 171.3125 201.296875 173.125 L 228.496094 260.761719 C 228.949219 262.574219 230.535156 263.933594 232.574219 264.160156 C 234.390625 264.386719 236.203125 263.253906 237.109375 261.667969 L 247.988281 240.835938 L 271.332031 271.859375 C 272.011719 272.765625 273.144531 273.445312 274.503906 273.667969 C 274.730469 273.667969 274.957031 273.667969 275.183594 273.667969 C 276.09375 273.667969 277.226562 273.445312 278.132812 272.765625 L 292.410156 261.667969 C 293.316406 260.988281 293.996094 259.855469 294.222656 258.496094 C 294.449219 257.140625 293.996094 256.007812 293.316406 254.875 Z M 268.613281 224.078125 " fill-opacity="1" fill-rule="nonzero"/><g clip-path="url(#6428dcf2f6)"><path fill="#6366f1" d="M 249.347656 276.613281 C 238.695312 276.613281 229.855469 285.445312 229.855469 296.316406 C 229.855469 307.183594 238.695312 316.015625 249.347656 316.015625 C 260 316.015625 268.839844 307.183594 268.839844 296.316406 C 268.839844 285.445312 260 276.613281 249.347656 276.613281 Z M 249.347656 276.613281 " fill-opacity="1" fill-rule="nonzero"/></g><g clip-path="url(#b4be8b3de7)"><path fill="#6366f1" d="M 137.15625 276.613281 C 126.503906 276.613281 117.664062 285.445312 117.664062 296.316406 C 117.664062 307.183594 126.503906 316.015625 137.15625 316.015625 C 147.808594 316.015625 156.648438 307.183594 156.648438 296.316406 C 156.648438 285.445312 147.808594 276.613281 137.15625 276.613281 Z M 137.15625 276.613281 " fill-opacity="1" fill-rule="nonzero"/></g></svg>