<svg xmlns="http://www.w3.org/2000/svg" xmlns:xlink="http://www.w3.org/1999/xlink" width="500" zoomAndPan="magnify" viewBox="0 0 375 374.999991" height="500" preserveAspectRatio="xMidYMid meet" version="1.0"><defs><clipPath id="ee07a74744"><path d="M 58.765625 60.835938 L 316 60.835938 L 316 318.085938 L 58.765625 318.085938 Z M 58.765625 60.835938 " clip-rule="nonzero"/></clipPath></defs><rect x="-37.5" width="450" fill="#ffffff" y="-37.499999" height="449.999989" fill-opacity="1"/><rect x="-37.5" width="450" fill="#e0e7ff" y="-37.499999" height="449.999989" fill-opacity="1"/><g clip-path="url(#ee07a74744)"><path fill="#6366f1" d="M 187.375 65.460938 C 255.851562 65.460938 311.363281 120.972656 311.363281 189.445312 C 311.363281 257.917969 255.851562 313.433594 187.375 313.433594 C 118.902344 313.433594 63.390625 257.917969 63.390625 189.445312 C 63.390625 120.972656 118.902344 65.460938 187.375 65.460938 Z M 187.375 60.824219 C 116.34375 60.824219 58.757812 118.410156 58.757812 189.445312 C 58.757812 260.480469 116.34375 318.066406 187.375 318.066406 C 258.414062 318.066406 315.996094 260.480469 315.996094 189.445312 C 315.996094 118.410156 258.414062 60.824219 187.375 60.824219 Z M 249.023438 132.222656 L 249.023438 186.015625 L 233.863281 176.222656 L 205.195312 194.023438 L 200.375 197.023438 L 197.554688 198.769531 L 197.554688 116.289062 L 164.976562 136.476562 L 164.976562 171.964844 L 157.328125 166.789062 L 157.328125 132.222656 L 205.195312 102.558594 Z M 80.328125 189.445312 C 80.328125 130.324219 128.253906 82.398438 187.378906 82.398438 C 246.5 82.398438 294.425781 130.324219 294.425781 189.445312 C 294.425781 216.765625 284.175781 241.679688 267.335938 260.597656 L 267.335938 203.585938 L 233.984375 181.011719 L 197.554688 203.585938 L 197.554688 296 C 194.203125 296.316406 190.8125 296.492188 187.378906 296.492188 C 183.945312 296.492188 180.550781 296.316406 177.199219 296 L 177.199219 185.421875 L 143.847656 162.847656 L 107.421875 185.421875 L 107.421875 260.597656 C 90.578125 241.679688 80.328125 216.765625 80.328125 189.445312 Z M 113.238281 188.664062 L 138.03125 173.300781 L 138.03125 284.433594 C 128.917969 279.6875 120.578125 273.675781 113.238281 266.621094 Z M 203.371094 206.828125 L 228.164062 191.464844 L 228.164062 288.429688 C 220.324219 291.664062 212.019531 294.003906 203.371094 295.300781 Z M 69.597656 189.445312 C 69.597656 254.492188 122.328125 307.226562 187.378906 307.226562 C 252.425781 307.226562 305.15625 254.492188 305.15625 189.445312 C 305.15625 124.398438 252.425781 71.667969 187.378906 71.667969 C 122.328125 71.667969 69.597656 124.398438 69.597656 189.445312 " fill-opacity="1" fill-rule="nonzero"/></g></svg>