<svg xmlns="http://www.w3.org/2000/svg" xmlns:xlink="http://www.w3.org/1999/xlink" width="500" zoomAndPan="magnify" viewBox="0 0 375 374.999991" height="500" preserveAspectRatio="xMidYMid meet" version="1.0"><defs><clipPath id="975d93971b"><path d="M 60.765625 60.765625 L 314.265625 60.765625 L 314.265625 314.265625 L 60.765625 314.265625 Z M 60.765625 60.765625 " clip-rule="nonzero"/></clipPath></defs><rect x="-37.5" width="450" fill="#ffffff" y="-37.499999" height="449.999989" fill-opacity="1"/><rect x="-37.5" width="450" fill="#e0e7ff" y="-37.499999" height="449.999989" fill-opacity="1"/><path fill="#6366f1" d="M 93.199219 181.6875 L 93.199219 193.347656 L 86.378906 193.347656 C 85.460938 193.347656 84.710938 192.597656 84.710938 191.679688 L 84.710938 183.355469 C 84.710938 182.4375 85.460938 181.6875 86.378906 181.6875 Z M 93.199219 181.6875 " fill-opacity="1" fill-rule="nonzero"/><path fill="#6366f1" d="M 276.996094 198.183594 L 276.996094 211.972656 C 276.996094 217.078125 272.835938 221.238281 267.730469 221.238281 C 262.652344 221.238281 258.492188 217.078125 258.492188 211.972656 L 258.492188 163.0625 C 258.492188 157.957031 262.652344 153.796875 267.730469 153.796875 C 272.835938 153.796875 276.996094 157.957031 276.996094 163.0625 Z M 276.996094 198.183594 " fill-opacity="1" fill-rule="nonzero"/><path fill="#6366f1" d="M 290.324219 183.355469 L 290.324219 191.679688 C 290.324219 192.597656 289.578125 193.347656 288.65625 193.347656 L 281.835938 193.347656 L 281.835938 181.6875 L 288.65625 181.6875 C 289.574219 181.6875 290.324219 182.4375 290.324219 183.355469 Z M 290.324219 183.355469 " fill-opacity="1" fill-rule="nonzero"/><path fill="#6366f1" d="M 253.652344 211.972656 L 253.652344 224.09375 C 253.652344 230.695312 248.28125 236.089844 241.679688 236.089844 L 239.621094 236.089844 C 233.019531 236.089844 227.648438 230.695312 227.648438 224.09375 L 227.648438 150.941406 C 227.648438 144.335938 233.019531 138.941406 239.621094 138.941406 L 241.679688 138.941406 C 248.28125 138.941406 253.652344 144.335938 253.652344 150.941406 Z M 253.652344 211.972656 " fill-opacity="1" fill-rule="nonzero"/><path fill="#6366f1" d="M 152.222656 181.6875 L 222.8125 181.6875 L 222.8125 193.347656 L 152.222656 193.347656 Z M 152.222656 181.6875 " fill-opacity="1" fill-rule="nonzero"/><path fill="#6366f1" d="M 147.386719 198.183594 L 147.386719 224.09375 C 147.386719 230.695312 142.015625 236.089844 135.410156 236.089844 L 133.355469 236.089844 C 126.75 236.089844 121.382812 230.695312 121.382812 224.09375 L 121.382812 150.941406 C 121.382812 144.339844 126.75 138.945312 133.355469 138.945312 L 135.410156 138.945312 C 142.015625 138.945312 147.386719 144.339844 147.386719 150.941406 Z M 147.386719 198.183594 " fill-opacity="1" fill-rule="nonzero"/><path fill="#6366f1" d="M 116.542969 163.0625 L 116.542969 211.972656 C 116.542969 217.078125 112.382812 221.238281 107.300781 221.238281 C 102.199219 221.238281 98.039062 217.078125 98.039062 211.972656 L 98.039062 163.0625 C 98.039062 157.957031 102.199219 153.796875 107.300781 153.796875 C 112.382812 153.796875 116.542969 157.957031 116.542969 163.0625 Z M 116.542969 163.0625 " fill-opacity="1" fill-rule="nonzero"/><g clip-path="url(#975d93971b)"><path fill="#6366f1" d="M 187.515625 60.765625 C 117.625 60.765625 60.765625 117.625 60.765625 187.515625 C 60.765625 257.40625 117.625 314.265625 187.515625 314.265625 C 257.40625 314.265625 314.265625 257.40625 314.265625 187.515625 C 314.265625 117.625 257.40625 60.765625 187.515625 60.765625 Z M 187.515625 305.910156 C 122.234375 305.910156 69.125 252.800781 69.125 187.515625 C 69.125 122.234375 122.234375 69.125 187.515625 69.125 C 252.800781 69.125 305.910156 122.234375 305.910156 187.515625 C 305.910156 252.800781 252.800781 305.910156 187.515625 305.910156 Z M 187.515625 305.910156 " fill-opacity="1" fill-rule="nonzero"/></g></svg>