<svg xmlns="http://www.w3.org/2000/svg" xmlns:xlink="http://www.w3.org/1999/xlink" width="500" zoomAndPan="magnify" viewBox="0 0 375 374.999991" height="500" preserveAspectRatio="xMidYMid meet" version="1.0"><defs><clipPath id="e1ef1b54f4"><path d="M 37.5 82.925781 L 337.5 82.925781 L 337.5 295.925781 L 37.5 295.925781 Z M 37.5 82.925781 " clip-rule="nonzero"/></clipPath></defs><rect x="-37.5" width="450" fill="#ffffff" y="-37.499999" height="449.999989" fill-opacity="1"/><rect x="-37.5" width="450" fill="#e0e7ff" y="-37.499999" height="449.999989" fill-opacity="1"/><g clip-path="url(#e1ef1b54f4)"><path fill="#6366f1" d="M 51.445312 295.867188 C 42.496094 276.703125 37.5 255.320312 37.5 232.78125 C 37.5 150.101562 104.714844 82.976562 187.503906 82.976562 C 270.292969 82.976562 337.507812 150.101562 337.507812 232.78125 C 337.507812 255.320312 332.511719 276.703125 323.5625 295.867188 L 321.789062 226.335938 L 323.816406 226.335938 C 325.132812 226.335938 326.199219 225.269531 326.199219 223.953125 C 326.199219 222.640625 325.132812 221.574219 323.816406 221.574219 L 321.605469 221.574219 L 321.203125 208.417969 L 324.382812 208.417969 C 325.386719 208.417969 326.199219 207.605469 326.199219 206.605469 C 326.199219 205.621094 325.417969 204.820312 324.441406 204.792969 C 325 203.847656 327.011719 200.117188 325.839844 197.070312 C 324.726562 194.179688 321.546875 191.71875 318.925781 190.265625 C 316.339844 188.835938 316.082031 186.191406 316.082031 186.191406 C 316.082031 186.191406 316.082031 188.296875 313.191406 190.265625 C 313.105469 190.324219 313.019531 190.382812 312.933594 190.441406 C 310.128906 192.351562 307.335938 194.253906 306.324219 197.070312 C 305.210938 200.164062 307.175781 203.855469 307.726562 204.792969 C 306.757812 204.835938 305.988281 205.628906 305.988281 206.605469 C 305.988281 207.605469 306.800781 208.417969 307.804688 208.417969 L 311.210938 208.417969 L 310.8125 221.574219 L 308.375 221.574219 C 307.058594 221.574219 305.988281 222.640625 305.988281 223.953125 C 305.988281 225.269531 307.058594 226.335938 308.375 226.335938 L 310.402344 226.335938 L 310.003906 241.988281 C 308.96875 240.183594 307.488281 239.054688 305.792969 238.480469 C 302.472656 226.035156 284.390625 218.246094 277.652344 215.738281 C 277.683594 215.574219 277.699219 215.40625 277.699219 215.230469 C 277.699219 214.292969 276.578125 213.46875 275.8125 213.019531 L 275.746094 211.785156 C 276.175781 211.558594 276.46875 211.109375 276.46875 210.589844 C 276.46875 210.019531 276.113281 209.53125 275.613281 209.335938 L 275.121094 200.277344 L 274.628906 209.335938 C 274.125 209.53125 273.769531 210.019531 273.769531 210.589844 C 273.769531 211.109375 274.0625 211.558594 274.492188 211.785156 L 274.425781 213.019531 C 273.664062 213.46875 272.539062 214.292969 272.539062 215.230469 C 272.539062 215.40625 272.554688 215.574219 272.589844 215.738281 C 265.847656 218.246094 247.765625 226.035156 244.445312 238.480469 C 242.390625 239.175781 240.648438 240.6875 239.632812 243.230469 L 239.632812 220.453125 L 239.628906 220.453125 C 239.503906 211.929688 235.984375 207.46875 231.359375 205.898438 C 226.613281 188.105469 200.757812 176.96875 191.121094 173.386719 C 191.167969 173.152344 191.195312 172.90625 191.195312 172.660156 C 191.195312 171.316406 189.585938 170.140625 188.492188 169.496094 L 188.398438 167.730469 C 189.011719 167.40625 189.429688 166.765625 189.429688 166.023438 C 189.429688 165.210938 188.921875 164.511719 188.207031 164.230469 L 187.503906 151.277344 L 186.800781 164.230469 C 186.082031 164.511719 185.574219 165.210938 185.574219 166.023438 C 185.574219 166.765625 185.996094 167.40625 186.609375 167.730469 L 186.511719 169.496094 C 185.417969 170.140625 183.8125 171.316406 183.8125 172.660156 C 183.8125 172.90625 183.835938 173.152344 183.882812 173.386719 C 174.25 176.96875 148.390625 188.105469 143.648438 205.898438 C 139.019531 207.46875 135.503906 211.929688 135.375 220.453125 L 135.371094 220.453125 L 135.371094 243.230469 C 134.355469 240.6875 132.613281 239.175781 130.558594 238.480469 C 127.242188 226.035156 109.15625 218.246094 102.417969 215.738281 C 102.449219 215.574219 102.46875 215.40625 102.46875 215.230469 C 102.46875 214.292969 101.34375 213.46875 100.578125 213.019531 L 100.511719 211.785156 C 100.941406 211.558594 101.234375 211.109375 101.234375 210.589844 C 101.234375 210.019531 100.878906 209.53125 100.378906 209.335938 L 99.886719 200.277344 L 99.394531 209.335938 C 98.894531 209.53125 98.539062 210.019531 98.539062 210.589844 C 98.539062 211.109375 98.832031 211.558594 99.261719 211.785156 L 99.195312 213.019531 C 98.429688 213.46875 97.304688 214.292969 97.304688 215.230469 C 97.304688 215.40625 97.324219 215.574219 97.355469 215.738281 C 90.617188 218.246094 72.53125 226.035156 69.214844 238.480469 C 67.519531 239.054688 66.039062 240.183594 65.003906 241.988281 L 64.605469 226.335938 L 66.632812 226.335938 C 67.949219 226.335938 69.015625 225.269531 69.015625 223.953125 C 69.015625 222.640625 67.949219 221.574219 66.632812 221.574219 L 64.421875 221.574219 L 64.019531 208.417969 L 67.199219 208.417969 C 68.203125 208.417969 69.015625 207.605469 69.015625 206.605469 C 69.015625 205.621094 68.234375 204.820312 67.257812 204.792969 C 67.816406 203.847656 69.828125 200.117188 68.65625 197.070312 C 67.542969 194.179688 64.363281 191.71875 61.742188 190.265625 C 59.152344 188.835938 58.898438 186.191406 58.898438 186.191406 C 58.898438 186.191406 58.898438 188.296875 56.007812 190.265625 C 55.921875 190.324219 55.835938 190.382812 55.75 190.441406 C 52.945312 192.351562 50.152344 194.253906 49.140625 197.070312 C 48.027344 200.164062 49.992188 203.855469 50.539062 204.792969 C 49.574219 204.835938 48.804688 205.628906 48.804688 206.605469 C 48.804688 207.605469 49.617188 208.417969 50.621094 208.417969 L 54.027344 208.417969 L 53.625 221.574219 L 51.191406 221.574219 C 49.871094 221.574219 48.804688 222.640625 48.804688 223.953125 C 48.804688 225.269531 49.871094 226.335938 51.191406 226.335938 L 53.21875 226.335938 Z M 51.445312 295.867188 " fill-opacity="1" fill-rule="evenodd"/></g></svg>